<svg xmlns="http://www.w3.org/2000/svg" xmlns:xlink="http://www.w3.org/1999/xlink"><symbol id="icon-check" viewBox="0 0 14 12">
<path fill-rule="evenodd" clip-rule="evenodd" d="M13.6138 0.210585C14.0498 0.549578 14.1285 1.17784 13.7895 1.61385L6.01453 11.6138C5.84138 11.8365 5.58223 11.9758 5.30094 11.9972C5.01966 12.0186 4.74242 11.9202 4.53757 11.7262L0.312502 7.72623C-0.0885582 7.34653 -0.105878 6.71361 0.273818 6.31255C0.653514 5.91149 1.28644 5.89417 1.6875 6.27386L5.11216 9.51608L12.2105 0.386246C12.5495 -0.0497617 13.1778 -0.128408 13.6138 0.210585Z"/>
</symbol><symbol id="icon-close" viewBox="0 0 24 24">
<path d="M1 23L23 1M23 23L1 1" stroke="#141517" stroke-opacity="0.2" stroke-linecap="round" stroke-linejoin="round"/>
</symbol><symbol id="icon-logo" viewBox="0 0 58 22">
<path d="M27.7339 0L22.0582 17.0732H17.7457L13.9289 5.51219L9.98817 17.0732H5.70045L0 0H4.1638L8.07976 12L12.1692 0H15.8869L19.8524 12.0976L23.8923 0H27.7339Z" fill="#141517"/>
<path d="M34.0886 3.7561C36.154 3.7561 37.7402 4.2439 38.8473 5.21951C39.9543 6.17886 40.5078 7.63414 40.5078 9.58536V17.0732H36.8893V15.439C36.1623 16.6585 34.8074 17.2683 32.8246 17.2683C31.8002 17.2683 30.9079 17.0976 30.1479 16.7561C29.4043 16.4146 28.8343 15.9431 28.4378 15.3415C28.0412 14.7398 27.8429 14.0569 27.8429 13.2927C27.8429 12.0732 28.3056 11.1138 29.2309 10.4146C30.1727 9.71545 31.6184 9.36585 33.5681 9.36585H36.6414C36.6414 8.53658 36.3853 7.90244 35.8731 7.46342C35.3609 7.00813 34.5926 6.78049 33.5681 6.78049C32.8577 6.78049 32.1554 6.89431 31.4615 7.12195C30.784 7.33333 30.2057 7.62602 29.7265 8L28.3386 5.34146C29.0656 4.8374 29.9331 4.44715 30.941 4.17073C31.9654 3.89431 33.0146 3.7561 34.0886 3.7561ZM33.7912 14.7073C34.4521 14.7073 35.0387 14.561 35.5509 14.2683C36.0631 13.9593 36.4266 13.5122 36.6414 12.9268V11.5854H33.9895C32.4033 11.5854 31.6102 12.0976 31.6102 13.122C31.6102 13.6098 31.8002 14 32.1802 14.2927C32.5768 14.5691 33.1138 14.7073 33.7912 14.7073Z" fill="#141517"/>
<path d="M57 3.95122L50.9774 17.878C50.366 19.3902 49.6059 20.4553 48.6972 21.0732C47.8049 21.6911 46.7227 22 45.4504 22C44.7564 22 44.0707 21.8943 43.3933 21.6829C42.7158 21.4715 42.1623 21.1789 41.7327 20.8049L43.1454 18.0976C43.4429 18.3577 43.7816 18.561 44.1616 18.7073C44.5582 18.8537 44.9465 18.9268 45.3265 18.9268C45.8552 18.9268 46.2848 18.7967 46.6153 18.5366C46.9457 18.2927 47.2432 17.878 47.5075 17.2927L47.5571 17.1707L41.7823 3.95122H45.7726L49.5151 12.8537L53.2823 3.95122H57Z" fill="#141517"/>
<path d="M57.0173 3.9502L50.9946 17.877C50.3833 19.3892 49.6232 20.4543 48.7145 21.0721C47.8222 21.69 46.74 21.999 45.4677 21.999C44.7737 21.999 44.088 21.8933 43.4106 21.6819C42.7331 21.4705 42.1796 21.1778 41.75 20.8039L43.1627 18.0965C43.4601 18.3567 43.7989 18.5599 44.1789 18.7063C44.5754 18.8526 44.9637 18.9258 45.3438 18.9258C45.8725 18.9258 46.3021 18.7957 46.6326 18.5356C46.963 18.2917 47.2604 17.877 47.5248 17.2917L47.5744 17.1697L49.5323 12.8526L53.2996 3.9502H57.0173Z" fill="#FE7865"/>
</symbol><symbol id="icon-mail" viewBox="0 0 26 20">
<path d="M24.2273 0H1.77273C0.768182 0 0 0.764706 0 1.76471V18.2353C0 19.2353 0.768182 20 1.77273 20H24.2273C25.2318 20 26 19.2353 26 18.2353V1.76471C26 0.764706 25.2318 0 24.2273 0ZM24.2273 17L19.5591 12.3529C19.2045 12 18.6727 12 18.3182 12.3529C17.9636 12.7059 17.9636 13.2353 18.3182 13.5882L22.9864 18.2353H3.01362L7.68182 13.5882C8.03636 13.2353 8.03636 12.7059 7.68182 12.3529C7.32727 12 6.79547 12 6.44092 12.3529L1.77273 17V5.70585L12.4091 13.7059C12.5864 13.8236 12.7636 13.8823 12.9409 13.8823C13.1182 13.8823 13.2954 13.8236 13.4727 13.7059L24.2273 5.70585V17ZM24.2273 1.76471V3.4706L12.9409 11.8235L1.77273 3.4706V1.76471H24.2273Z"/>
</symbol><symbol id="icon-phone" viewBox="0 0 17 24">
<path id="icon" d="M1.3961 6.62432C1.31155 5.42623 1.57729 4.24606 2.2809 3.29684C2.8909 2.43632 3.68511 1.96636 4.64239 1.69172C5.44868 1.4525 5.97715 1.74561 6.20968 2.64204C6.54186 3.98224 7.01598 5.3225 7.18811 6.73361C7.24247 7.35485 6.84084 8.23322 6.40598 8.6856C5.31583 9.75888 5.54232 10.5399 6.36976 12.1643C6.62644 12.6881 7.03412 13.5934 7.82834 14.7919C8.65577 15.9992 9.09364 16.6472 10.1566 16.0975C11.3374 15.5035 12.198 15.8855 13.0889 16.8444C13.6928 17.5369 14.3572 18.1318 14.9612 18.8243C15.8339 19.8542 15.7946 20.5641 15.1121 21.2915C13.8831 22.6309 11.8538 23.0736 10.3439 22.1766C9.51039 21.6881 8.67994 21.0487 8.0186 20.303C5.10447 16.9825 3.00266 13.1212 1.73735 8.76321C1.53502 8.02654 1.4414 7.28104 1.3961 6.62432Z" stroke-width="2" stroke-miterlimit="10"/>
</symbol></svg>